<svg width="100" height="100" viewBox="0 0 100 100" fill="none" xmlns="http://www.w3.org/2000/svg">
<path d="M50.5839 24.9473L47.0145 32.1796L39.0332 33.3394L44.8085 38.969L43.4452 46.9182L50.5839 43.1651L57.7227 46.9182L56.3594 38.969L62.1347 33.3394L54.1533 32.1796L50.5839 24.9473Z" fill="#FF6534"/>
<path d="M50.5832 12.5C37.1443 12.5 26.25 23.3943 26.25 36.8333C26.25 50.2722 37.1443 61.1665 50.5832 61.1665C64.0222 61.1665 74.9165 50.2722 74.9165 36.8333C74.9165 23.3943 64.0222 12.5 50.5832 12.5ZM65.3949 36.298L61.0805 40.5036L62.099 46.442C62.3751 48.0523 61.7256 49.6493 60.4039 50.6097C59.6569 51.1524 58.783 51.4281 57.9032 51.4281C57.226 51.4281 56.5453 51.2647 55.9163 50.934L50.5832 48.1303L45.2502 50.934C43.8041 51.6944 42.0845 51.57 40.7626 50.6097C39.4409 49.6493 38.7913 48.0523 39.0675 46.442L40.086 40.5036L35.7715 36.298C34.6015 35.1576 34.1883 33.4839 34.6932 31.93C35.1981 30.3761 36.5162 29.2648 38.1331 29.0299L44.0956 28.1634L46.7621 22.7605C47.4853 21.2954 48.9494 20.3853 50.5832 20.3853C52.2171 20.3853 53.6812 21.2954 54.4044 22.7605L57.0709 28.1634L63.0334 29.0299C64.6503 29.2648 65.9684 30.3761 66.4733 31.93C66.9782 33.4839 66.565 35.1576 65.3949 36.298Z" fill="#FF6534"/>
<path d="M61.7657 63.3007C58.8479 64.5349 55.7821 65.2669 52.627 65.4876L58.0234 87.4991L64.0494 81.4144L71.6683 84.1538L66.0095 61.0723C64.6652 61.9289 63.2484 62.6736 61.7657 63.3007Z" fill="#FF6534"/>
<path d="M39.4025 63.3014C37.9217 62.675 36.5068 61.9315 35.1638 61.0762L29.5059 84.1545L37.1248 81.4151L43.1507 87.4998L48.5471 65.4887C45.3899 65.2684 42.3221 64.5363 39.4025 63.3014Z" fill="#FF6534"/>
</svg>
