<svg width="80" height="80" viewBox="0 0 80 80" fill="none" xmlns="http://www.w3.org/2000/svg">
<path d="M55.2857 10H25.2857C24.1491 10 23.059 10.4515 22.2553 11.2553C21.4515 12.059 21 13.1491 21 14.2857V65.7143C21 66.8509 21.4515 67.941 22.2553 68.7447C23.059 69.5485 24.1491 70 25.2857 70H55.2857C56.4224 70 57.5124 69.5485 58.3162 68.7447C59.1199 67.941 59.5714 66.8509 59.5714 65.7143V14.2857C59.5714 13.1491 59.1199 12.059 58.3162 11.2553C57.5124 10.4515 56.4224 10 55.2857 10ZM42.4286 65.7143H38.1429V61.4286H42.4286V65.7143ZM25.2857 57.1429V14.2857H55.2857V57.1429H25.2857Z" fill="#FF6534"/>
</svg>
