<svg width="80" height="80" viewBox="0 0 80 80" fill="none" xmlns="http://www.w3.org/2000/svg">
<path d="M70 29.6135C68.8402 28.7372 57.2938 19.3042 40 19.3042C36.5979 19.3042 33.4278 19.665 30.4897 20.2836L56.5722 46.366L70 29.6135ZM19.6907 16.7526C19.4521 16.514 19.1688 16.3247 18.8571 16.1956C18.5453 16.0665 18.2112 16 17.8737 16C17.5363 16 17.2021 16.0665 16.8904 16.1956C16.5786 16.3247 16.2953 16.514 16.0567 16.7526C15.8181 16.9912 15.6288 17.2745 15.4997 17.5863C15.3705 17.898 15.3041 18.2322 15.3041 18.5696C15.3041 18.9071 15.3705 19.2412 15.4997 19.553C15.6288 19.8648 15.8181 20.148 16.0567 20.3867L19.5361 23.866C13.9948 26.4176 10.5928 29.1495 10 29.6135L35.9794 61.9846C38.0412 64.5619 41.9588 64.5619 44.0206 61.9846L50.0773 54.433L56.8041 61.1599C57.286 61.6418 57.9396 61.9125 58.6211 61.9125C59.3026 61.9125 59.9562 61.6418 60.4381 61.1599C60.92 60.6779 61.1908 60.0244 61.1908 59.3428C61.1908 58.6613 60.92 58.0077 60.4381 57.5258L19.6907 16.7526Z" fill="#FF6534"/>
</svg>
