<svg width="80" height="80" viewBox="0 0 80 80" fill="none" xmlns="http://www.w3.org/2000/svg">
<path fill-rule="evenodd" clip-rule="evenodd" d="M24.9918 15.8513C21.416 19.3777 19.3123 24.1675 19.1168 29.2278C19.0394 29.981 19.0004 30.7379 19 31.4952C19.0054 32.189 19.0665 32.8812 19.1827 33.5648C19.9882 41.7977 29.8248 58.7595 36.3496 67.595C38.4457 70.4498 40.4579 71.1499 43.1319 67.5554C49.6867 58.7291 59.4634 41.7886 60.2689 33.5679C60.387 32.8834 60.4491 32.1901 60.4545 31.4952C60.4542 30.7338 60.4152 29.9729 60.3378 29.2156C60.1352 24.1531 58.0177 19.3655 54.4268 15.8513C50.4194 12.0892 45.1645 10 39.7093 10C34.2541 10 28.9992 12.0892 24.9918 15.8513ZM39.7303 17.5526C42.0163 17.5552 44.2504 18.2448 46.1519 19.5346C48.0533 20.8244 49.537 22.6569 50.4165 24.8016C51.2959 26.9463 51.5319 29.3074 51.0946 31.588C50.6573 33.8686 49.5664 35.9668 47.9589 37.6189C46.8946 38.7409 45.6153 39.6293 44.2001 40.2292C42.7848 40.8291 41.2636 41.1278 39.7303 41.1068C38.2085 41.1315 36.6982 40.8341 35.2956 40.2337C33.8929 39.6332 32.6284 38.7427 31.5825 37.6189C30.4971 36.5305 29.6352 35.2338 29.0469 33.804C28.4587 32.3742 28.1557 30.8399 28.1557 29.2901C28.1557 27.7404 28.4587 26.2061 29.0469 24.7763C29.6352 23.3465 30.4971 22.0498 31.5825 20.9614C32.639 19.857 33.9072 18.9847 35.3087 18.3984C36.7101 17.812 38.215 17.5242 39.7303 17.5526Z" fill="#FF6534"/>
</svg>
