<svg width="100" height="100" viewBox="0 0 100 100" fill="none" xmlns="http://www.w3.org/2000/svg">
<path d="M61.5735 44.5922C60.7562 38.8205 58.755 30.8018 53.8954 24.0846C53.7591 23.8961 53.4931 23.8536 53.3049 23.9904C46.3521 29.039 42.3493 36.367 40.1739 41.8461C38.6474 45.6906 37.7949 49.1504 37.3477 51.38C37.3017 51.6097 37.4624 51.8294 37.6951 51.8564L61.7511 54.6339C61.9871 54.6612 62.1951 54.4794 62.1982 54.242C62.2257 52.01 62.1365 48.568 61.5735 44.5922Z" fill="#FF6534"/>
<path d="M48.0247 22.6172C41.5219 22.7752 34.868 24.9058 29.2434 28.7098C23.0082 32.9271 18.8664 38.5945 17.3618 44.8817C17.2372 45.4029 17.5421 45.9312 18.0526 46.0942L32.9798 50.859C33.442 48.4646 34.3541 44.656 36.053 40.349C38.9159 33.091 43.0008 27.0632 48.0247 22.6172Z" fill="#FF6534"/>
<path d="M52.8314 18.4463L55.8291 18.7924C56.0841 18.8218 56.3389 18.8549 56.5933 18.8903L57.1181 14.9874C57.2796 13.7862 56.4369 12.6814 55.2355 12.5199C54.033 12.3582 52.9293 13.2011 52.7679 14.4025L52.2324 18.3847C52.4323 18.4041 52.6322 18.4233 52.8314 18.4463Z" fill="#FF6534"/>
<path d="M48.3434 78.866L49.5894 69.7698L49.7651 69.795C49.8703 69.8101 49.9748 69.8174 50.0781 69.8174C51.5368 69.8174 52.7458 68.3616 52.0861 66.6639C51.836 66.0207 51.2442 65.5724 50.561 65.4748L50.1852 65.4211L51.224 57.8376L46.8625 57.334L45.8398 64.8006L45.5952 64.7657C44.9065 64.6673 44.2087 64.9376 43.7881 65.4915C42.6145 67.0369 43.5613 68.9091 45.1486 69.1357L45.244 69.1493L43.9735 78.4245C41.6971 78.2452 39.3696 78.1426 36.9888 78.1426C25.2892 78.1426 16.5845 79.7468 13.6121 80.378C12.9635 80.5156 12.5 81.0874 12.5 81.7505V86.0976C12.5 86.8725 13.1281 87.5006 13.903 87.5006H86.0038C86.7787 87.5006 87.4068 86.8725 87.4068 86.0976V85.4784C87.4068 84.7204 86.8047 84.0953 86.047 84.0762C75.6826 83.8148 63.1739 80.6843 48.3434 78.866Z" fill="#FF6534"/>
<path d="M82.0732 53.4873C82.6027 53.4443 83.0167 53.0057 83.0201 52.4744C83.0609 45.943 80.5372 39.4868 75.7633 34.0418C71.3211 28.9754 65.3553 25.3652 58.998 23.8125C62.4831 29.4357 64.8576 36.3426 65.941 44.0932C66.5677 48.5765 66.637 52.3781 66.5885 54.7447L82.0732 53.4873Z" fill="#FF6534"/>
</svg>
