<svg width="76" height="76" viewBox="0 0 76 76" fill="none" xmlns="http://www.w3.org/2000/svg">
<path d="M37.9997 19.2148C27.6415 19.2148 19.2148 27.6432 19.2148 38.0014C19.2148 48.3595 27.6415 56.7879 37.9997 56.7879C48.3562 56.7879 56.7846 48.3612 56.7846 38.0014C56.7846 27.6415 48.3562 19.2148 37.9997 19.2148Z" fill="#FF6534"/>
<path d="M37.9993 13.6931C35.9748 13.6931 34.334 12.0523 34.334 10.0294V4.1653C34.334 2.14083 35.9748 0.5 37.9993 0.5C40.0238 0.5 41.6646 2.14083 41.6646 4.1653V10.0294C41.6646 12.0523 40.0221 13.6931 37.9993 13.6931Z" fill="#FF6534"/>
<path d="M37.9993 62.3047C35.9748 62.3047 34.334 63.9455 34.334 65.97V71.8325C34.334 73.8586 35.9748 75.4994 37.9993 75.4994C40.0238 75.4994 41.6646 73.8586 41.6646 71.8325V65.97C41.6646 63.9455 40.0221 62.3047 37.9993 62.3047Z" fill="#FF6534"/>
<path d="M55.1857 20.8127C53.7558 19.3812 53.7558 17.0611 55.1857 15.6295L59.3326 11.4826C60.7626 10.0527 63.0843 10.0527 64.5159 11.4826C65.9475 12.9142 65.9475 15.2359 64.5159 16.6658L60.369 20.8127C58.939 22.2443 56.619 22.2443 55.1857 20.8127Z" fill="#FF6534"/>
<path d="M20.8114 55.1882C19.3798 53.755 17.0598 53.755 15.6282 55.1882L11.4813 59.3335C10.0513 60.7634 10.0497 63.0868 11.4813 64.5167C12.9128 65.9466 15.2346 65.9466 16.6645 64.5167L20.8114 60.3681C22.243 58.9382 22.243 56.6165 20.8114 55.1882Z" fill="#FF6534"/>
<path d="M62.3047 37.9993C62.3047 35.9748 63.9455 34.334 65.97 34.334H71.8341C73.8586 34.334 75.4994 35.9748 75.4994 37.9993C75.4994 40.0238 73.8586 41.6629 71.8341 41.6629H65.97C63.9455 41.6629 62.3047 40.0238 62.3047 37.9993Z" fill="#FF6534"/>
<path d="M13.6931 37.9993C13.6931 35.9748 12.0523 34.334 10.0278 34.334H4.1653C2.14083 34.334 0.5 35.9748 0.5 37.9993C0.5 40.0238 2.14083 41.6629 4.1653 41.6629H10.0294C12.0523 41.6629 13.6931 40.0238 13.6931 37.9993Z" fill="#FF6534"/>
<path d="M55.185 55.1896C56.6166 53.7597 58.9383 53.7597 60.3682 55.1896L64.5152 59.3365C65.9468 60.7648 65.9468 63.0882 64.5152 64.5181C63.0836 65.948 60.7635 65.948 59.3319 64.5181L55.185 60.3712C53.7534 58.9396 53.7534 56.6195 55.185 55.1896Z" fill="#FF6534"/>
<path d="M20.812 20.8123C22.2436 19.3808 22.2436 17.0607 20.812 15.6291L16.6651 11.4838C15.2335 10.0523 12.9135 10.0523 11.4819 11.4838C10.0503 12.9138 10.0503 15.2355 11.4819 16.6654L15.6288 20.8123C17.0604 22.2456 19.3805 22.2456 20.812 20.8123Z" fill="#FF6534"/>
</svg>
