<svg width="80" height="80" viewBox="0 0 80 80" fill="none" xmlns="http://www.w3.org/2000/svg">
<path d="M48.4734 64.3229C48.4769 65.0026 48.2905 65.6696 47.9355 66.2471C47.5805 66.8247 47.0714 67.2893 46.4666 67.5877C46.0039 67.8142 45.4964 67.9319 44.9823 67.9322C44.1654 67.9307 43.3756 67.6359 42.7542 67.1005L23.6606 50.7578H13.4915C13.0278 50.7526 12.5696 50.6551 12.1432 50.471C11.7168 50.2869 11.3305 50.0198 11.0063 49.685C10.6821 49.3501 10.4264 48.954 10.2538 48.5193C10.0812 48.0847 9.99511 47.6199 10.0004 47.1516V32.7921C9.99348 32.3226 10.0784 31.8564 10.2502 31.4201C10.422 30.9838 10.6774 30.5861 11.0017 30.2496C11.326 29.9132 11.7129 29.6447 12.1401 29.4595C12.5674 29.2743 13.0266 29.1761 13.4915 29.1704H23.6606L42.7542 12.8308C43.2592 12.3941 43.8792 12.1153 44.5385 12.0288C45.1979 11.9423 45.8679 12.0517 46.4666 12.3436C47.0714 12.642 47.5805 13.1067 47.9355 13.6842C48.2905 14.2617 48.4769 14.9287 48.4734 15.6084V64.3229ZM61.8939 58.6871C61.8078 58.6871 61.728 58.6871 61.6419 58.6871C61.1832 58.685 60.7296 58.5906 60.3074 58.4095C59.8853 58.2283 59.5032 57.964 59.1834 57.6319L58.7162 57.1478C58.1221 56.5296 57.7625 55.7198 57.7007 54.8606C57.6389 54.0014 57.8787 53.1476 58.3782 52.4492C61.0648 48.6872 62.4655 44.1442 62.3684 39.507C62.2714 34.8698 60.6819 30.3906 57.8404 26.7466C57.2958 26.0511 57.0193 25.1797 57.0623 24.2941C57.1052 23.4085 57.4647 22.5686 58.0739 21.9301L58.5411 21.4491C58.8796 21.0905 59.2914 20.8107 59.7478 20.6291C60.2042 20.4474 60.6943 20.3682 61.184 20.397C61.6739 20.4239 62.1526 20.5554 62.5886 20.7828C63.0245 21.0101 63.4078 21.3281 63.7132 21.716C67.6566 26.7477 69.8623 32.9438 69.9938 39.3594C70.1253 45.775 68.1754 52.0579 64.4416 57.2502C64.1453 57.6614 63.7639 58.0027 63.324 58.2503C62.8841 58.4979 62.3961 58.6458 61.8939 58.684V58.6871Z" fill="#FF6534"/>
</svg>
