<svg width="80" height="80" viewBox="0 0 80 80" fill="none" xmlns="http://www.w3.org/2000/svg">
<path d="M69.9976 29.982C69.9585 30.5679 69.7728 31.1343 69.4404 31.6812C69.1081 32.228 68.6878 32.5015 68.1795 32.5015H48.8254C47.8871 32.5405 47.4374 31.8765 47.4765 30.5094L54.8662 23.1268C50.6044 19.377 45.6584 17.502 40.0281 17.502C35.9618 17.502 32.1985 18.5079 28.7383 20.5195C25.278 22.5311 22.541 25.2654 20.5274 28.7223C18.5138 32.1792 17.507 35.9486 17.507 40.0305C17.507 44.1123 18.5138 47.872 20.5274 51.3093C22.541 54.7467 25.278 57.4712 28.7383 59.4828C32.1985 61.4945 35.9618 62.5003 40.0281 62.5003C43.4688 62.5003 46.7043 61.7679 49.7345 60.3031C52.7647 58.8383 55.3354 56.8169 57.4468 54.2389L63.3703 58.8676C60.5552 62.344 57.1144 65.0686 53.0481 67.0411C48.9818 69.0137 44.6418 70 40.0281 70C35.9618 70 32.0715 69.209 28.357 67.627C24.6426 66.0451 21.4463 63.9162 18.768 61.2406C16.0897 58.5649 13.9588 55.3717 12.3753 51.6609C10.7918 47.9501 10 44.0635 10 40.0012C10 35.9388 10.7918 32.062 12.3753 28.3708C13.9588 24.6795 16.0897 21.496 18.768 18.8204C21.4463 16.1447 24.6426 14.0159 28.357 12.4339C32.0715 10.8519 35.9618 10.0609 40.0281 10.0609C43.8207 10.0609 47.4472 10.7445 50.9075 12.1116C54.3677 13.4788 57.4663 15.3928 60.2033 17.8536L68.0622 10.0023C69.4307 9.96328 70.0954 10.4125 70.0563 11.3499L69.9976 29.982Z" fill="#FF6534"/>
</svg>
