<svg width="100" height="100" viewBox="0 0 100 100" fill="none" xmlns="http://www.w3.org/2000/svg">
<path d="M61.1385 14.1543C45.591 18.936 34.6191 33.6859 34.6191 49.9992C34.6191 50.7386 34.6959 51.4589 34.7385 52.1878C38.9401 52.1666 43.3235 50.9759 48.0821 48.5566C49.255 35.309 57.6232 25.0645 71.7321 19.4225C68.5309 17.1448 64.9748 15.3377 61.1385 14.1543Z" fill="#FF6534"/>
<path d="M75.7063 22.6875C69.1357 24.9984 62.0406 29.0127 57.3965 35.4242C70.8984 38.0804 81.7895 47.8441 85.8196 61.0904C86.9118 57.5852 87.5005 53.8598 87.5005 49.9994C87.5005 39.2928 82.9475 29.5046 75.7063 22.6875Z" fill="#FF6534"/>
<path d="M81.9621 63.3341C78.5223 50.6292 67.9681 41.3203 54.9977 39.4082C53.7131 42.081 52.8694 45.1395 52.5215 48.5701C65.0334 53.5498 71.4884 66.5562 73.7772 78.9005C77.4505 75.8916 80.5365 72.1964 82.8493 68.0143C82.656 66.4486 82.3826 64.8862 81.9621 63.3341Z" fill="#FF6534"/>
<path d="M50.2374 52.3909C44.7304 55.2158 39.6292 56.5917 34.6191 56.5917C27.1569 56.5917 19.003 54.0456 12.5561 48.8906C12.5451 49.2624 12.5 49.6255 12.5 50C12.5 54.8301 13.4517 59.4344 15.1281 63.6754C16.8975 63.5225 22.7445 69.7753 34.6191 69.7753C44.1453 69.7753 53.121 65.4672 59.0004 57.9579C56.5465 55.5447 53.6338 53.626 50.2374 52.3909Z" fill="#FF6534"/>
<path d="M53.2196 12.6556C52.2039 12.5722 51.1846 12.5 50.1477 12.5C31.7533 12.5 16.1667 26.0224 13.0977 43.5509C17.7797 48.0819 23.8993 50.9596 30.3272 51.862C30.2996 51.2397 30.2258 50.6294 30.2258 50C30.2258 34.1916 39.4767 19.6848 53.2196 12.6556Z" fill="#FF6534"/>
<path d="M61.9021 61.3027C55.1912 69.473 45.2212 74.1704 34.6187 74.1704C29.0292 74.1704 23.4803 72.8625 18.5859 70.3751C25.2604 80.5827 37.0654 87.5004 50.146 87.5004C57.359 87.5004 64.0774 85.2645 69.7936 81.7095C68.7557 74.6252 66.2679 67.1365 61.9021 61.3027Z" fill="#FF6534"/>
</svg>
