<svg width="42" height="38" viewBox="0 0 42 38" fill="none" xmlns="http://www.w3.org/2000/svg">
<path d="M38.7927 21.7331V18.2908C38.7927 13.5382 36.9419 9.07008 33.5814 5.7095C30.2208 2.34884 25.7527 0.498047 21 0.498047C16.2474 0.498047 11.7793 2.34884 8.41864 5.7095C5.05806 9.07008 3.20726 13.5383 3.20726 18.2908V21.7331C1.42177 21.8344 0 23.3187 0 25.1292V30.4591C0 32.335 1.52619 33.8613 3.40209 33.8613H5.36887C5.50882 35.8908 7.20359 37.4997 9.26807 37.4997C11.4239 37.4997 13.1778 35.7458 13.1778 33.59V21.9985C13.1778 19.8427 11.4239 18.0888 9.26807 18.0888C8.87211 18.0888 8.49 18.1484 8.12956 18.2583C8.1472 11.1762 13.9139 5.41993 21 5.41993C28.0862 5.41993 33.8529 11.1762 33.8704 18.2583C33.51 18.1484 33.1278 18.0888 32.7319 18.0888C30.5761 18.0888 28.8222 19.8427 28.8222 21.9985V33.5899C28.8222 35.7457 30.5761 37.4996 32.7319 37.4996C34.7964 37.4996 36.4912 35.8908 36.6311 33.8612H38.5979C40.4738 33.8612 42 32.335 42 30.459V25.1291C42.0001 23.3187 40.5783 21.8344 38.7927 21.7331Z" fill="white"/>
</svg>
